<svg width="32" height="32" viewBox="0 0 32 32" fill="none" xmlns="http://www.w3.org/2000/svg">
<g clip-path="url(#clip0_3_196)">
<path d="M29.2001 25.0045L28.8978 24.7378C28.0405 23.9739 27.29 23.0978 26.6667 22.1333C25.986 20.8023 25.5781 19.3487 25.4667 17.8578V13.4667C25.4726 11.125 24.6232 8.86177 23.0781 7.10221C21.5329 5.34265 19.3984 4.20789 17.0756 3.91112V2.76446C17.0756 2.44973 16.9506 2.1479 16.7281 1.92536C16.5055 1.70281 16.2037 1.57779 15.889 1.57779C15.5742 1.57779 15.2724 1.70281 15.0499 1.92536C14.8273 2.1479 14.7023 2.44973 14.7023 2.76446V3.9289C12.4003 4.24706 10.2916 5.38868 8.76676 7.14233C7.24192 8.89597 6.40427 11.1428 6.40896 13.4667V17.8578C6.29763 19.3487 5.88965 20.8023 5.20896 22.1333C4.59641 23.0954 3.85802 23.9713 3.0134 24.7378L2.71118 25.0045V27.5111H29.2001V25.0045Z" fill="#E4E6EB"/>
<path d="M13.6177 28.4445C13.6956 29.0079 13.9748 29.5241 14.4037 29.8978C14.8326 30.2714 15.3822 30.4772 15.951 30.4772C16.5198 30.4772 17.0694 30.2714 17.4983 29.8978C17.9272 29.5241 18.2064 29.0079 18.2843 28.4445H13.6177Z" fill="#E4E6EB"/>
</g>
<defs>
<clipPath id="clip0_3_196">
<rect width="32" height="32" fill="white"/>
</clipPath>
</defs>
</svg>
