<svg width="36" height="37" viewBox="0 0 36 37" fill="none" xmlns="http://www.w3.org/2000/svg">
<g clip-path="url(#clip0_3_185)">
<path d="M12.5931 21.9051C12.5982 21.8936 12.6039 21.8823 12.61 21.8712L12.5931 21.9051ZM12.6688 21.7294C12.6687 21.7306 12.6686 21.7318 12.6685 21.733L12.6688 21.7294ZM11.862 23.7517C15.7813 22.3483 16.2143 22.2903 17.0766 22.5585C20.9737 23.7698 24.9127 22.1968 26.2558 19.0255C27.7124 15.5862 25.6902 11.3169 21.5687 9.57133C17.4472 7.8258 12.9734 9.34524 11.5173 12.7835C10.6715 14.7806 11.0712 17.2815 12.5176 19.3747C13.1207 20.2461 13.027 20.9803 12.7138 21.6701C12.6898 21.7222 12.6643 21.7737 12.6373 21.8243C12.513 22.1823 12.2604 22.8081 11.862 23.7517ZM16.3944 24.7468C16.1916 24.6833 14.1136 25.3685 10.1603 26.8023C9.95017 26.8786 9.72243 26.8916 9.5052 26.8397C9.28798 26.7879 9.09076 26.6734 8.93792 26.5105C8.78507 26.3476 8.68329 26.1433 8.64513 25.923C8.60697 25.7026 8.63411 25.4757 8.7232 25.2704C9.79961 22.7875 10.392 21.3624 10.503 20.9976C10.5614 20.807 10.6618 20.7164 10.6371 20.6811C8.88292 18.1477 8.17369 14.8152 9.41134 11.8928C11.3867 7.22868 17.2306 5.24437 22.4628 7.46028C27.695 9.67618 30.3362 15.2541 28.3613 19.9172C26.5218 24.2606 21.3269 26.2809 16.3955 24.7473L16.3944 24.7468Z" fill="#E4E6EB"/>
<path d="M16.4349 13.8104L13.4349 18.3104L16.9349 16.8104L21.4349 18.8104L23.4349 15.3104V14.3104L22.9349 13.8104L19.9349 15.8104L16.4349 13.8104Z" stroke="#F0F2F5"/>
</g>
<defs>
<clipPath id="clip0_3_185">
<rect width="27.4385" height="27.4971" fill="white" transform="translate(10.7234) rotate(22.9534)"/>
</clipPath>
</defs>
</svg>
