<svg width="32" height="31" viewBox="0 0 32 31" fill="none" xmlns="http://www.w3.org/2000/svg">
<path d="M27.4667 6.79418C27.3657 6.01232 26.9744 5.29279 26.3659 4.76989C25.7575 4.24699 24.9734 3.95645 24.16 3.95251H7.84668C7.03534 3.95604 6.25289 4.24476 5.64473 4.76503C5.03656 5.2853 4.64401 6.00175 4.54001 6.78126L4.14001 9.97168C4.14054 10.5977 4.27876 11.2163 4.54545 11.7865C4.81215 12.3567 5.20119 12.8653 5.68668 13.2783V23.8183C5.68668 24.6748 6.03787 25.4961 6.66299 26.1017C7.28811 26.7073 8.13596 27.0475 9.02001 27.0475H22.98C23.8641 27.0475 24.7119 26.7073 25.337 26.1017C25.9622 25.4961 26.3134 24.6748 26.3134 23.8183V13.2783C26.8001 12.8658 27.1904 12.3575 27.4582 11.7873C27.7261 11.2171 27.8653 10.5981 27.8667 9.97168L27.4667 6.79418ZM18.68 25.7558H13.3467V20.4858C13.3467 19.972 13.5574 19.4792 13.9325 19.1158C14.3075 18.7525 14.8162 18.5483 15.3467 18.5483H16.68C17.2104 18.5483 17.7192 18.7525 18.0942 19.1158C18.4693 19.4792 18.68 19.972 18.68 20.4858V25.7558ZM24.9867 23.8183C24.9867 24.3322 24.776 24.825 24.4009 25.1884C24.0258 25.5517 23.5171 25.7558 22.9867 25.7558H20.0133V20.4858C20.0133 19.6294 19.6622 18.8081 19.037 18.2025C18.4119 17.5969 17.5641 17.2567 16.68 17.2567H15.3467C14.4626 17.2567 13.6148 17.5969 12.9897 18.2025C12.3645 18.8081 12.0133 19.6294 12.0133 20.4858V25.7558H9.02001C8.48958 25.7558 7.98087 25.5517 7.6058 25.1884C7.23073 24.825 7.02001 24.3322 7.02001 23.8183V14.0404C7.54463 14.2484 8.10653 14.3537 8.67335 14.3504C9.32786 14.3534 9.97508 14.2173 10.5694 13.9517C11.1638 13.6861 11.6908 13.2976 12.1133 12.8133C12.1736 12.7553 12.2551 12.7227 12.34 12.7227C12.425 12.7227 12.5065 12.7553 12.5667 12.8133C12.9892 13.2976 13.5163 13.6861 14.1106 13.9517C14.7049 14.2173 15.3522 14.3534 16.0067 14.3504C16.6641 14.3531 17.3141 14.217 17.9117 13.9516C18.5092 13.6861 19.0399 13.2977 19.4667 12.8133C19.4939 12.7849 19.5269 12.7622 19.5636 12.7466C19.6003 12.7311 19.64 12.723 19.68 12.7229C19.7221 12.7227 19.7638 12.7306 19.8027 12.7461C19.8416 12.7616 19.877 12.7845 19.9067 12.8133C20.3292 13.2976 20.8563 13.6861 21.4506 13.9517C22.045 14.2173 22.6922 14.3534 23.3467 14.3504C23.9092 14.3537 24.4667 14.2484 24.9867 14.0404V23.8183ZM23.3467 13.0588C22.8862 13.0608 22.4307 12.9661 22.0118 12.781C21.5928 12.5959 21.2203 12.3249 20.92 11.9867C20.7699 11.8129 20.5823 11.673 20.3703 11.5771C20.1584 11.4811 19.9273 11.4313 19.6933 11.4313H19.68C19.447 11.4292 19.2164 11.4767 19.0045 11.5705C18.7925 11.6642 18.6044 11.8019 18.4533 11.9738C18.1441 12.3005 17.7681 12.5614 17.3492 12.7399C16.9303 12.9184 16.4776 13.0106 16.02 13.0106C15.5624 13.0106 15.1098 12.9184 14.6909 12.7399C14.272 12.5614 13.8959 12.3005 13.5867 11.9738C13.4315 11.8033 13.2407 11.6668 13.0269 11.5733C12.8131 11.4799 12.5812 11.4315 12.3467 11.4315C12.1121 11.4315 11.8802 11.4799 11.6664 11.5733C11.4526 11.6668 11.2618 11.8033 11.1067 11.9738C10.6859 12.4495 10.1264 12.7908 9.50173 12.953C8.87706 13.1151 8.21638 13.0905 7.60642 12.8823C6.99645 12.6742 6.4657 12.2923 6.08384 11.7866C5.70197 11.281 5.48684 10.6754 5.46668 10.0492L5.86668 6.94918C5.93 6.48071 6.16591 6.05017 6.53097 5.73687C6.89603 5.42356 7.36566 5.24859 7.85335 5.24418H24.16C24.6491 5.24392 25.1213 5.41726 25.4874 5.73143C25.8534 6.0456 26.088 6.47882 26.1467 6.94918L26.5333 9.99751C26.5256 10.8127 26.1856 11.5919 25.5875 12.1653C24.9893 12.7387 24.1815 13.0598 23.34 13.0588H23.3467Z" fill="#B0B3B8"/>
</svg>
