<svg width="25" height="24" viewBox="0 0 25 24" fill="none" xmlns="http://www.w3.org/2000/svg">
<path fill-rule="evenodd" clip-rule="evenodd" d="M6.25 4.5H18.75C20.4076 4.5 21.9973 5.13214 23.1694 6.25736C24.3415 7.38258 25 8.9087 25 10.5V15C25 16.5913 24.3415 18.1174 23.1694 19.2426C21.9973 20.3679 20.4076 21 18.75 21H6.25C4.5924 21 3.00269 20.3679 1.83058 19.2426C0.65848 18.1174 0 16.5913 0 15V10.5C0 8.9087 0.65848 7.38258 1.83058 6.25736C3.00269 5.13214 4.5924 4.5 6.25 4.5ZM6.25 6C5.0068 6 3.81451 6.47411 2.93544 7.31802C2.05636 8.16193 1.5625 9.30653 1.5625 10.5V15C1.5625 16.1935 2.05636 17.3381 2.93544 18.182C3.81451 19.0259 5.0068 19.5 6.25 19.5H18.75C19.9932 19.5 21.1855 19.0259 22.0646 18.182C22.9436 17.3381 23.4375 16.1935 23.4375 15V10.5C23.4375 9.30653 22.9436 8.16193 22.0646 7.31802C21.1855 6.47411 19.9932 6 18.75 6H6.25Z" fill="#B0B3B8"/>
<path d="M8.59375 9C8.38655 9 8.18784 9.07902 8.04132 9.21967C7.89481 9.36032 7.8125 9.55109 7.8125 9.75V12H5.46875C5.26155 12 5.06284 12.079 4.91632 12.2197C4.76981 12.3603 4.6875 12.5511 4.6875 12.75C4.6875 12.9489 4.76981 13.1397 4.91632 13.2803C5.06284 13.421 5.26155 13.5 5.46875 13.5H7.8125V15.75C7.8125 15.9489 7.89481 16.1397 8.04132 16.2803C8.18784 16.421 8.38655 16.5 8.59375 16.5C8.80095 16.5 8.99966 16.421 9.14618 16.2803C9.29269 16.1397 9.375 15.9489 9.375 15.75V13.5H11.7188C11.926 13.5 12.1247 13.421 12.2712 13.2803C12.4177 13.1397 12.5 12.9489 12.5 12.75C12.5 12.5511 12.4177 12.3603 12.2712 12.2197C12.1247 12.079 11.926 12 11.7188 12H9.375V9.75C9.375 9.55109 9.29269 9.36032 9.14618 9.21967C8.99966 9.07902 8.80095 9 8.59375 9ZM20.3125 10.5C20.3125 10.8978 20.1479 11.2794 19.8549 11.5607C19.5618 11.842 19.1644 12 18.75 12C18.3356 12 17.9382 11.842 17.6451 11.5607C17.3521 11.2794 17.1875 10.8978 17.1875 10.5C17.1875 10.1022 17.3521 9.72064 17.6451 9.43934C17.9382 9.15804 18.3356 9 18.75 9C19.1644 9 19.5618 9.15804 19.8549 9.43934C20.1479 9.72064 20.3125 10.1022 20.3125 10.5ZM18.75 15C18.75 15.3978 18.5854 15.7794 18.2924 16.0607C17.9993 16.342 17.6019 16.5 17.1875 16.5C16.7731 16.5 16.3757 16.342 16.0826 16.0607C15.7896 15.7794 15.625 15.3978 15.625 15C15.625 14.6022 15.7896 14.2206 16.0826 13.9393C16.3757 13.658 16.7731 13.5 17.1875 13.5C17.6019 13.5 17.9993 13.658 18.2924 13.9393C18.5854 14.2206 18.75 14.6022 18.75 15Z" fill="#B0B3B8"/>
</svg>
