<svg width="28" height="25" viewBox="0 0 28 25" fill="none" xmlns="http://www.w3.org/2000/svg">
<ellipse cx="12.5" cy="12" rx="12.5" ry="12" fill="#D9D9D9"/>
<ellipse cx="12.5" cy="12" rx="11.5" ry="11" fill="#242526"/>
<path d="M5.53432 7.67679C5.47433 7.55349 5.3896 7.44274 5.28497 7.35084C5.18035 7.25895 5.05787 7.18772 4.92454 7.14122C4.79121 7.09472 4.64963 7.07386 4.50789 7.07983C4.36615 7.0858 4.22703 7.11848 4.09846 7.17602C3.9699 7.23355 3.8544 7.31481 3.75858 7.41514C3.66276 7.51548 3.58848 7.63293 3.54 7.7608C3.49151 7.88866 3.46975 8.02443 3.47598 8.16036C3.48221 8.29629 3.51629 8.42971 3.57628 8.553L5.53432 7.67679ZM21.7419 8.54886C21.8061 8.4251 21.8439 8.29026 21.853 8.15229C21.862 8.01432 21.8422 7.876 21.7946 7.74549C21.7471 7.61499 21.6728 7.49493 21.576 7.3924C21.4793 7.28988 21.3622 7.20696 21.2316 7.14853C21.1009 7.0901 20.9594 7.05735 20.8153 7.0522C20.6713 7.04705 20.5276 7.06961 20.3928 7.11856C20.2579 7.1675 20.1347 7.24183 20.0303 7.33717C19.9259 7.43251 19.8425 7.54693 19.7849 7.67368L21.7419 8.54886ZM13.7391 5.03571C13.7391 4.76103 13.6253 4.49759 13.4228 4.30335C13.2202 4.10912 12.9455 4 12.6591 4C12.3726 4 12.0979 4.10912 11.8954 4.30335C11.6929 4.49759 11.5791 4.76103 11.5791 5.03571H13.7391ZM18.0591 18.7879C18.0591 18.9412 17.8863 19.3886 16.7998 19.8568C15.7997 20.2856 14.3374 20.5714 12.6591 20.5714V22.6429C14.5599 22.6429 16.3376 22.3239 17.6822 21.747C18.9404 21.2063 20.2191 20.2452 20.2191 18.7879H18.0591ZM12.6591 20.5714C10.9808 20.5714 9.51844 20.2856 8.51836 19.8568C7.4308 19.3897 7.25908 18.9412 7.25908 18.7879H5.09908C5.09908 20.2452 6.3778 21.2063 7.636 21.747C8.9806 22.3239 10.7583 22.6429 12.6591 22.6429V20.5714ZM7.25908 18.7879C7.25908 18.24 7.69648 17.4021 8.7322 16.645C9.86582 15.8319 11.2435 15.3926 12.6591 15.3929V13.3214C10.6179 13.3214 8.77108 14.0112 7.42216 14.9983C6.11212 15.9563 5.09908 17.3338 5.09908 18.7879H7.25908ZM12.6591 15.3929C14.1981 15.3929 15.5902 15.9169 16.586 16.6461C17.6217 17.4021 18.0591 18.2411 18.0591 18.7879H20.2191C20.2191 17.3338 19.206 15.9563 17.896 14.9972C16.3859 13.909 14.548 13.3209 12.6591 13.3214V15.3929ZM6.30004 10.4784C6.46204 10.8129 6.48472 11.1278 6.4372 11.3474C6.3886 11.5649 6.29464 11.6229 6.26656 11.6353L7.17916 13.513C7.96216 13.163 8.3974 12.4711 8.55076 11.773C8.70412 11.075 8.59828 10.3044 8.257 9.60218L6.30004 10.4784ZM6.26656 11.6353C6.23848 11.6477 6.13156 11.6809 5.92636 11.5752C5.72116 11.4696 5.48356 11.251 5.32156 10.9155L3.36352 11.7906C3.7048 12.4929 4.25236 13.0646 4.90792 13.4022C5.56456 13.7388 6.39724 13.8631 7.17916 13.513L6.26656 11.6353ZM5.32156 10.9155C5.15956 10.5809 5.1358 10.265 5.18332 10.0465C5.23084 9.82796 5.32588 9.771 5.35396 9.75857L4.44028 7.88082C3.65728 8.23089 3.22204 8.92171 3.06868 9.62082C2.91532 10.3189 3.02224 11.0895 3.36352 11.7906L5.3194 10.9155H5.32156ZM5.35396 9.75857C5.38312 9.74511 5.48788 9.713 5.69416 9.81864C5.89936 9.92429 6.13804 10.1428 6.30004 10.4784L8.257 9.60218C7.91572 8.901 7.36816 8.32825 6.7126 7.99164C6.05596 7.65504 5.2222 7.53075 4.44028 7.88082L5.35396 9.75857ZM5.8756 8.38107L5.53432 7.67679L3.57628 8.553L3.91864 9.25729L5.8756 8.38107ZM19.9977 10.9113C19.8346 11.2469 19.5981 11.4654 19.3918 11.5711C19.1866 11.6767 19.0797 11.6436 19.0516 11.6311L18.139 13.5089C18.9209 13.859 19.7536 13.7347 20.4102 13.3981C21.0658 13.0615 21.6134 12.4887 21.9546 11.7875L19.9977 10.9113ZM19.0516 11.6311C19.0235 11.6187 18.9296 11.5617 18.881 11.3432C18.8334 11.1236 18.8561 10.8088 19.0181 10.4732L17.0612 9.59907C16.7199 10.3003 16.614 11.0708 16.7674 11.7689C16.9208 12.468 17.356 13.1588 18.139 13.5089L19.0516 11.6311ZM19.0192 10.4743C19.1812 10.1387 19.4188 9.92014 19.624 9.8145C19.8292 9.70886 19.9361 9.742 19.9642 9.75443L20.8768 7.87668C20.0949 7.52661 19.2622 7.65089 18.6056 7.9875C17.95 8.32411 17.4024 8.89686 17.0612 9.59907L19.0192 10.4743ZM19.9642 9.75443C19.9923 9.76686 20.0873 9.82382 20.1348 10.0424C20.1824 10.2619 20.1597 10.5758 19.9977 10.9113L21.9546 11.7875C22.2959 11.0853 22.4018 10.3148 22.2484 9.61668C22.095 8.91757 21.6598 8.22675 20.8768 7.87668L19.9642 9.75443ZM21.4006 9.25314L21.7419 8.54886L19.7849 7.67368L19.4426 8.37796L21.4006 9.25314ZM13.7391 8.66071C13.7391 9.74614 13.0436 10.2143 12.6591 10.2143V12.2857C14.6614 12.2857 15.8991 10.4349 15.8991 8.66071H13.7391ZM12.6591 10.2143C12.2746 10.2143 11.5791 9.74614 11.5791 8.66071H9.41908C9.41908 10.4349 10.6568 12.2857 12.6591 12.2857V10.2143ZM11.5791 8.66071C11.5791 7.57529 12.2746 7.10714 12.6591 7.10714V5.03571C10.6568 5.03571 9.41908 6.88654 9.41908 8.66071H11.5791ZM12.6591 7.10714C13.0436 7.10714 13.7391 7.57529 13.7391 8.66071H15.8991C15.8991 6.88654 14.6614 5.03571 12.6591 5.03571V7.10714ZM13.7391 6.07143V5.03571H11.5791V6.07143H13.7391Z" fill="#B0B3B8"/>
</svg>
